<svg width="116" height="116" viewBox="0 0 116 116" fill="none" xmlns="http://www.w3.org/2000/svg">
<path d="M30.8436 85.0479C32.9589 87.1632 36.3886 87.1632 38.5039 85.0479L57.9235 65.6283L77.3431 85.0479C79.4584 87.1632 82.888 87.1632 85.0034 85.0479C87.1187 82.9325 87.1187 79.5029 85.0034 77.3875L65.5838 57.968L85.0033 38.5485C87.1187 36.4331 87.1187 33.0035 85.0033 30.8881C82.888 28.7728 79.4583 28.7728 77.343 30.8881L57.9235 50.3076L38.504 30.8881C36.3886 28.7728 32.959 28.7728 30.8437 30.8881C28.7283 33.0035 28.7283 36.4331 30.8437 38.5485L50.2632 57.968L30.8436 77.3875C28.7282 79.5029 28.7282 82.9325 30.8436 85.0479Z" fill="#161C1D"/>
</svg>
