<svg width="36" height="36" viewBox="0 0 36 36" fill="none" xmlns="http://www.w3.org/2000/svg">
<path fill-rule="evenodd" clip-rule="evenodd" d="M25.2012 31.9374C25.5983 32.725 25.2919 33.6969 24.4816 34.026C21.1437 35.3818 17.4594 35.6624 13.9372 34.8067C9.90073 33.8261 6.34274 31.4175 3.90439 28.0149C1.46604 24.6123 0.307676 20.4395 0.638034 16.2484C0.968392 12.0573 2.76575 8.12353 5.70622 5.15591C8.64669 2.18829 12.5369 0.381977 16.6759 0.0624686C20.8149 -0.25704 24.9304 0.931264 28.281 3.41325C31.6315 5.89524 33.9967 9.5077 34.9503 13.5997C35.262 14.9371 35.4162 16.297 35.4161 17.6523L35.4161 17.6558C35.4159 18.5689 35.3458 19.4799 35.2066 20.3806C34.7634 23.7034 33.3829 28.8784 29.0828 28.8784C25.3887 28.8784 24.1571 26.7404 23.7465 25.3149C22.1508 26.5446 20.1593 27.2747 17.9995 27.2747C12.7528 27.2747 8.49948 22.9666 8.49948 17.6523C8.49948 12.3381 12.7528 8.03003 17.9995 8.03003C23.2462 8.03003 27.4995 12.3381 27.4995 17.6523C27.4995 17.6523 27.4995 20.8598 27.4971 24.0672C27.4995 25.6709 28.2911 25.6709 28.2911 25.6709C29.7588 25.6709 30.6839 24.4469 31.2663 22.9553C31.2807 22.9044 31.2974 22.8539 31.3162 22.8038C31.3825 22.6281 31.4453 22.4512 31.5046 22.2734C32.1882 20.0871 32.2495 17.6523 32.2495 17.6523H32.2544C32.2544 16.5431 32.1282 15.43 31.8731 14.3354C31.0926 10.9862 29.1568 8.02956 26.4145 5.99814C23.6722 3.96672 20.3038 2.99413 16.9162 3.25564C13.5286 3.51714 10.3445 4.99555 7.93786 7.42444C5.53118 9.85334 4.06011 13.073 3.78972 16.5033C3.51934 19.9335 4.46742 23.3488 6.46312 26.1338C8.45883 28.9187 11.3709 30.89 14.6747 31.6926C17.4637 32.3702 20.3769 32.1772 23.0374 31.1591C23.8542 30.8466 24.8042 31.1498 25.2012 31.9374ZM11.663 17.6523C11.663 21.1969 14.5 24.0704 17.9995 24.0704C21.499 24.0704 24.3359 21.1969 24.3359 17.6523C24.3359 14.1078 21.499 11.2343 17.9995 11.2343C14.5 11.2343 11.663 14.1078 11.663 17.6523Z" fill="#EC9A29"/>
</svg>
