<svg width="38" height="42" viewBox="0 0 38 42" fill="none" xmlns="http://www.w3.org/2000/svg">
<path fill-rule="evenodd" clip-rule="evenodd" d="M4.67673 20.147C4.38796 20.853 4.33293 21.2136 4.33293 21.3004V36.1593C4.33293 37.1827 5.15155 38.0129 6.16626 38.0129H11.6663V26.8713C11.6663 24.8201 13.3079 23.1574 15.3329 23.1574H22.6663C24.6913 23.1574 26.3329 24.8201 26.3329 26.8713V38.0129H31.8329C32.8476 38.0129 33.6663 37.1827 33.6663 36.1593V21.3004C33.6663 21.2136 33.6112 20.853 33.3225 20.147C33.0542 19.4911 32.6475 18.687 32.1165 17.7769C31.0563 15.9595 29.5687 13.8355 27.9037 11.8118C26.2349 9.78348 24.4334 7.91133 22.7583 6.56478C21.921 5.89164 21.1513 5.37921 20.4763 5.04183C19.7862 4.69685 19.3004 4.58799 18.9996 4.58799C18.6987 4.58799 18.213 4.69685 17.5228 5.04183C16.8479 5.37921 16.0782 5.89164 15.2409 6.56478C13.5658 7.91133 11.7643 9.78348 10.0955 11.8118C8.43052 13.8355 6.94288 15.9595 5.88265 17.7769C5.35168 18.687 4.94498 19.4911 4.67673 20.147ZM15.9002 1.71143C16.8643 1.2295 17.9254 0.874115 18.9996 0.874115C20.0737 0.874115 21.1349 1.2295 22.099 1.71143C23.0784 2.20097 24.0704 2.87814 25.0377 3.65574C26.972 5.21064 28.9518 7.28449 30.7205 9.43426C32.493 11.5887 34.0991 13.8749 35.2733 15.8875C35.8595 16.8923 36.3551 17.8581 36.7099 18.7255C37.0442 19.5428 37.3329 20.4588 37.3329 21.3004V36.1593C37.3329 39.2382 34.8683 41.7268 31.8329 41.7268H26.3329C24.3079 41.7268 22.6663 40.064 22.6663 38.0129V26.8713H15.3329V38.0129C15.3329 40.064 13.6913 41.7268 11.6663 41.7268H6.16626C3.13088 41.7268 0.66626 39.2382 0.66626 36.1593V21.3004C0.66626 20.4588 0.954975 19.5428 1.28926 18.7255C1.64405 17.8581 2.1397 16.8923 2.72592 15.8875C3.90005 13.8749 5.50617 11.5887 7.27869 9.43426C9.04739 7.28449 11.0272 5.21064 12.9614 3.65574C13.9288 2.87814 14.9208 2.20097 15.9002 1.71143Z" fill="#EC9A29"/>
</svg>
