<svg width="41" height="30" viewBox="0 0 41 30" fill="none" xmlns="http://www.w3.org/2000/svg">
<path fill-rule="evenodd" clip-rule="evenodd" d="M34.8329 0.743912C37.8015 0.743912 40.2079 3.18137 40.2079 6.18812V24.3355C40.2079 27.3422 37.8015 29.7797 34.8329 29.7797H6.16626C3.19773 29.7797 0.79126 27.3422 0.79126 24.3355V6.18812C0.79126 3.18137 3.19773 0.743912 6.16626 0.743912H34.8329ZM33.4943 4.37338H7.50495L19.3894 13.8767C20.0404 14.3972 20.9589 14.3972 21.6098 13.8767L33.4943 4.37338ZM4.37459 6.49445V24.3355C4.37459 25.3377 5.17675 26.1502 6.16626 26.1502H34.8329C35.8224 26.1502 36.6246 25.3377 36.6246 24.3355V6.49449L23.8302 16.7254C21.8774 18.2869 19.1218 18.2869 17.169 16.7254L4.37459 6.49445Z" fill="#EC9A29"/>
</svg>
