<svg width="38" height="30" viewBox="0 0 38 30" fill="none" xmlns="http://www.w3.org/2000/svg">
<path d="M0.666626 15C0.666626 14.0795 1.41282 13.3333 2.33329 13.3333H35.6666C36.5871 13.3333 37.3333 14.0795 37.3333 15C37.3333 15.9205 36.5871 16.6667 35.6666 16.6667H2.33329C1.41282 16.6667 0.666626 15.9205 0.666626 15Z" fill="#EC9A29"/>
<path d="M0.666626 1.66667C0.666626 0.746192 1.41282 0 2.33329 0H35.6666C36.5871 0 37.3333 0.746192 37.3333 1.66667C37.3333 2.58714 36.5871 3.33333 35.6666 3.33333H2.33329C1.41282 3.33333 0.666626 2.58714 0.666626 1.66667Z" fill="#EC9A29"/>
<path d="M0.666626 28.3333C0.666626 27.4129 1.41282 26.6667 2.33329 26.6667H35.6666C36.5871 26.6667 37.3333 27.4129 37.3333 28.3333C37.3333 29.2538 36.5871 30 35.6666 30H2.33329C1.41282 30 0.666626 29.2538 0.666626 28.3333Z" fill="#EC9A29"/>
</svg>
