<svg width="60" height="51" viewBox="0 0 60 51" fill="none" xmlns="http://www.w3.org/2000/svg">
<path fill-rule="evenodd" clip-rule="evenodd" d="M57.5911 9.55085C58.3706 6.25759 54.6383 3.52083 51.0199 4.73244L6.66662 19.5841C2.62589 20.9371 2.44585 25.8341 6.37896 27.4073L16.0379 31.2709L20.6327 45.2087C20.8714 45.9326 21.5343 46.4931 22.3753 46.682C23.2163 46.8708 24.1098 46.6599 24.7241 46.1275L31.8021 39.9932L41.7169 46.4378C44.5949 48.3085 48.7402 46.946 49.463 43.8918L57.5911 9.55085ZM8.43396 23.5485L52.7873 8.69683L44.6592 43.0378L33.0432 35.4874C32.0671 34.8529 30.7011 34.937 29.8383 35.6848L26.8068 38.3121L27.7176 33.9706L45.5654 18.5025C46.434 17.7497 46.5259 16.5561 45.7802 15.71C45.0346 14.864 43.6817 14.6267 42.6152 15.1549L17.9669 27.3616L8.43396 23.5485ZM20.9722 30.7682L22.459 35.2782L23.0299 32.5573C23.1191 32.132 23.3558 31.7404 23.7085 31.4348L29.1514 26.7176L20.9722 30.7682Z" fill="#0A0B0C"/>
</svg>
